<svg width="55" height="55" viewBox="0 0 55 55" fill="none" xmlns="http://www.w3.org/2000/svg">
<path d="M27.5 6.875C29.1997 6.875 30.8612 7.37901 32.2744 8.32331C33.6877 9.2676 34.7892 10.6098 35.4396 12.1801C36.09 13.7504 36.2602 15.4783 35.9286 17.1453C35.597 18.8123 34.7786 20.3436 33.5767 21.5454C32.3748 22.7473 30.8436 23.5658 29.1766 23.8974C27.5095 24.229 25.7816 24.0588 24.2113 23.4083C22.641 22.7579 21.2989 21.6564 20.3546 20.2432C19.4103 18.8299 18.9062 17.1684 18.9062 15.4688C18.9062 13.1895 19.8117 11.0037 21.4233 9.39205C23.0349 7.78041 25.2208 6.875 27.5 6.875ZM27.5 3.4375C25.1204 3.4375 22.7943 4.14312 20.8158 5.46513C18.8373 6.78714 17.2952 8.66617 16.3846 10.8646C15.474 13.063 15.2357 15.4821 15.6999 17.8159C16.1642 20.1498 17.31 22.2935 18.9926 23.9761C20.6752 25.6587 22.819 26.8046 25.1528 27.2688C27.4867 27.7331 29.9057 27.4948 32.1042 26.5842C34.3026 25.6736 36.1816 24.1315 37.5036 22.153C38.8256 20.1744 39.5312 17.8483 39.5312 15.4688C39.5312 12.2779 38.2637 9.21767 36.0074 6.96137C33.7511 4.70507 30.6909 3.4375 27.5 3.4375Z" fill="#7A7A7A"/>
<path d="M44.6875 51.5625H41.25V42.9688C41.25 41.8402 41.0277 40.7227 40.5958 39.6801C40.164 38.6374 39.531 37.6901 38.7329 36.8921C37.9349 36.094 36.9876 35.461 35.9449 35.0292C34.9023 34.5973 33.7848 34.375 32.6562 34.375H22.3438C20.0645 34.375 17.8787 35.2804 16.2671 36.8921C14.6554 38.5037 13.75 40.6895 13.75 42.9688V51.5625H10.3125V42.9688C10.3125 39.7779 11.5801 36.7177 13.8364 34.4614C16.0927 32.2051 19.1529 30.9375 22.3438 30.9375H32.6562C35.8471 30.9375 38.9073 32.2051 41.1636 34.4614C43.4199 36.7177 44.6875 39.7779 44.6875 42.9688V51.5625Z" fill="#7A7A7A"/>
</svg>
