<svg width="33" height="33" viewBox="0 0 33 33" fill="none" xmlns="http://www.w3.org/2000/svg">
<path d="M21.3642 14.2008C22.1113 13.6196 22.713 12.8726 23.1217 12.0187C23.5303 11.1649 23.7347 10.2277 23.7187 9.28127C23.7187 5.63817 20.7504 3.09377 16.5 3.09377C15.5374 3.03788 14.5739 3.18631 13.6727 3.52931C12.7716 3.87232 11.9532 4.40213 11.2714 5.08394C10.5896 5.76574 10.0598 6.5841 9.71678 7.48525C9.37378 8.38639 9.22534 9.34992 9.28124 10.3125V31.9688H11.3437V25.9056C12.1439 26.7343 13.1064 27.3891 14.171 27.8292C15.2356 28.2692 16.3795 28.485 17.5312 28.4631C18.5734 28.5017 19.6124 28.3257 20.5837 27.9462C21.5551 27.5666 22.4381 26.9915 23.1781 26.2566C23.918 25.5217 24.4991 24.6427 24.8853 23.6739C25.2715 22.7052 25.4546 21.6674 25.4232 20.625C25.4571 19.273 25.0897 17.9412 24.3672 16.7978C23.6448 15.6544 22.5998 14.7508 21.3642 14.2008ZM17.5312 26.4C16.7415 26.4449 15.9509 26.3294 15.2071 26.0603C14.4633 25.7913 13.7817 25.3743 13.2035 24.8346C12.6253 24.2949 12.1624 23.6437 11.8427 22.9202C11.5231 22.1967 11.3533 21.4159 11.3437 20.625V10.3125C11.2957 9.62301 11.3961 8.93123 11.6382 8.28385C11.8804 7.63648 12.2586 7.04858 12.7473 6.55984C13.236 6.07111 13.8239 5.69291 14.4713 5.45078C15.1187 5.20865 15.8105 5.10822 16.5 5.15627C19.6323 5.15627 21.6562 6.77533 21.6562 9.28127C21.6744 9.82789 21.5802 10.3724 21.3793 10.8811C21.1785 11.3898 20.8753 11.8519 20.4886 12.2386C20.1018 12.6253 19.6398 12.9285 19.1311 13.1294C18.6224 13.3302 18.0779 13.4245 17.5312 13.4063V15.4688C21.0727 15.4688 23.3607 17.493 23.3607 20.625C23.3916 21.3963 23.2615 22.1656 22.9788 22.8839C22.696 23.6022 22.2668 24.2537 21.7184 24.797C21.17 25.3402 20.5145 25.7633 19.7936 26.0393C19.0727 26.3153 18.3022 26.4382 17.5312 26.4Z" fill="#7A7A7A"/>
</svg>
