<svg width="19" height="19" viewBox="0 0 19 19" fill="none" xmlns="http://www.w3.org/2000/svg">
<path d="M12.3006 8.17626C12.7308 7.84162 13.0772 7.4115 13.3125 6.9199C13.5478 6.4283 13.6654 5.8887 13.6562 5.34377C13.6562 3.24623 11.9472 1.78127 9.49999 1.78127C8.94577 1.74909 8.39101 1.83456 7.87217 2.03204C7.35333 2.22953 6.88215 2.53457 6.4896 2.92713C6.09704 3.31968 5.792 3.79086 5.59451 4.3097C5.39703 4.82854 5.31156 5.3833 5.34374 5.93752V18.4063H6.53124V14.9154C6.99196 15.3925 7.5461 15.7695 8.15905 16.0229C8.77201 16.2762 9.43061 16.4005 10.0937 16.3879C10.6938 16.4101 11.292 16.3088 11.8513 16.0902C12.4105 15.8717 12.9189 15.5406 13.345 15.1175C13.771 14.6943 14.1056 14.1882 14.3279 13.6305C14.5503 13.0727 14.6557 12.4752 14.6376 11.875C14.6571 11.0966 14.4456 10.3298 14.0296 9.67148C13.6137 9.01318 13.012 8.49287 12.3006 8.17626ZM10.0937 15.2C9.63907 15.2259 9.18388 15.1593 8.75563 15.0044C8.32737 14.8495 7.93495 14.6095 7.60202 14.2987C7.26909 13.988 7.00257 13.6131 6.81854 13.1965C6.6345 12.7799 6.53677 12.3304 6.53124 11.875V5.93752C6.50358 5.54054 6.5614 5.14224 6.70081 4.76951C6.84022 4.39677 7.05797 4.05829 7.33936 3.77689C7.62076 3.4955 7.95924 3.27775 8.33197 3.13834C8.70471 2.99893 9.10301 2.94111 9.49999 2.96877C11.3035 2.96877 12.4687 3.90096 12.4687 5.34377C12.4792 5.65849 12.425 5.97201 12.3093 6.2649C12.1937 6.5578 12.0191 6.82382 11.7965 7.04648C11.5738 7.26914 11.3078 7.44371 11.0149 7.55935C10.722 7.675 10.4085 7.72926 10.0937 7.71877V8.90627C12.1327 8.90627 13.4501 10.0717 13.4501 11.875C13.4679 12.3191 13.393 12.762 13.2302 13.1756C13.0674 13.5891 12.8203 13.9643 12.5045 14.2771C12.1888 14.5898 11.8114 14.8335 11.3963 14.9924C10.9813 15.1513 10.5376 15.222 10.0937 15.2Z" fill="#7A7A7A"/>
</svg>
