<svg width="22" height="22" viewBox="0 0 22 22" fill="none" xmlns="http://www.w3.org/2000/svg">
<path d="M14.2428 9.46719C14.7409 9.07971 15.142 8.58168 15.4144 8.01245C15.6869 7.44323 15.8232 6.81844 15.8125 6.18747C15.8125 3.75874 13.8336 2.06247 11 2.06247C10.3583 2.02521 9.71592 2.12416 9.11516 2.35284C8.51439 2.58151 7.96882 2.93471 7.51428 3.38925C7.05974 3.84379 6.70654 4.38936 6.47787 4.99012C6.2492 5.59089 6.15024 6.23324 6.1875 6.87497V21.3125H7.5625V17.2704C8.09596 17.8228 8.73759 18.2594 9.44733 18.5527C10.1571 18.8461 10.9197 18.99 11.6875 18.9754C12.3823 19.0011 13.0749 18.8838 13.7225 18.6307C14.3701 18.3777 14.9588 17.9943 15.4521 17.5044C15.9454 17.0144 16.3328 16.4284 16.5902 15.7826C16.8477 15.1367 16.9697 14.4449 16.9488 13.75C16.9714 12.8486 16.7264 11.9607 16.2448 11.1985C15.7632 10.4363 15.0666 9.83379 14.2428 9.46719ZM11.6875 17.6C11.161 17.6299 10.634 17.5529 10.1381 17.3735C9.64223 17.1941 9.18784 16.9162 8.80235 16.5564C8.41685 16.1966 8.10825 15.7624 7.89516 15.2801C7.68207 14.7978 7.5689 14.2772 7.5625 13.75V6.87497C7.53047 6.4153 7.59742 5.95411 7.75884 5.52253C7.92026 5.09094 8.1724 4.69901 8.49822 4.37319C8.82404 4.04737 9.21597 3.79523 9.64756 3.63381C10.0791 3.47239 10.5403 3.40544 11 3.43747C13.0882 3.43747 14.4375 4.51685 14.4375 6.18747C14.4496 6.55188 14.3868 6.91491 14.2529 7.25404C14.119 7.59318 13.9169 7.9012 13.6591 8.15902C13.4012 8.41685 13.0932 8.61897 12.7541 8.75288C12.4149 8.88678 12.0519 8.94961 11.6875 8.93747V10.3125C14.0484 10.3125 15.5738 11.662 15.5738 13.75C15.5944 14.2642 15.5077 14.777 15.3192 15.2559C15.1307 15.7347 14.8446 16.1691 14.479 16.5313C14.1134 16.8935 13.6763 17.1755 13.1957 17.3595C12.7151 17.5435 12.2015 17.6254 11.6875 17.6Z" fill="#7A7A7A"/>
</svg>
